PathFileType	4	(X/Y/Z)	OpenSim_Sub08_EMGBaseline_Gyro.trc
DataRate	CameraRate	NumFrames	NumMarkers	Units	OrigDataRate	OrigDataStartFrame	OrigNumFrames
100	100	24	8	m	100	2496	6654
Frame#	Time	torso_imu_offset_imu	pelvis_imu_offset_imu	tibia_r_imu_offset_imu	femur_r_imu_offset_imu	tibia_l_imu_offset_imu	femur_l_imu_offset_imu	toes_r_imu_offset_imu	toes_l_imu_offset_imu
				X1	Y1	Z1	X2	Y2	Z2	X3	Y3	Z3	X4	Y4	Z4	X5	Y5	Z5	X6	Y6	Z6	X7	Y7	Z7	X8		Y8	Z8	

2496	24.95000000	-0.02677050	-0.38974659	0.10291317	0.41995835	0.07772009	0.11514875	1.42210905	0.71710377	4.32250201	-0.38932015	0.44123644	-0.44621189	0.14459897	-0.24571795	0.75431806	0.46817695	-0.21157738	0.41553965	-1.20495892	3.99591700	1.91500019	0.02857913	-0.04110851	0.17275109
2497	24.96000000	0.00452767	-0.35663461	0.11327193	0.35302096	0.06006904	0.08729215	1.48729841	0.48796699	3.71958616	-0.21606308	0.56101674	-0.40566352	0.21605800	-0.23257928	0.75611036	0.41601949	-0.20187862	0.44220701	-0.90972870	3.83898242	2.13421506	0.05136100	-0.04035041	0.16719624
2498	24.97000000	0.03289292	-0.31420935	0.09663903	0.27769208	0.02960770	0.06343498	1.67890795	0.63560684	3.46278328	-0.06103109	0.67748992	-0.34213211	0.24138789	-0.23396523	0.76826216	0.37209474	-0.21312436	0.48243659	-0.82373428	3.63300980	2.45027217	0.04136003	-0.05970802	0.17029400
2499	24.98000000	0.05827351	-0.27180220	0.09787762	0.20197593	-0.00416534	0.04512822	1.66964253	0.86215994	3.64063836	-0.01265222	0.73137173	-0.26836440	0.24557212	-0.23210630	0.78147980	0.34556245	-0.22478787	0.52881639	-0.86684427	3.32894412	2.79432837	0.06271385	-0.10029327	0.15811199
2500	24.99000000	0.08019899	-0.22500533	0.10519949	0.13438723	-0.02871633	0.04060987	1.27822249	0.81418723	3.80391044	-0.08895240	0.72888142	-0.22150998	0.23760033	-0.21125621	0.79698271	0.31392687	-0.23526327	0.56099893	-0.84151127	2.96033272	3.09380725	0.08073736	-0.07553007	0.16581014
2501	25	0.09126005	-0.18174436	0.10748409	0.07737072	-0.02272627	0.04298294	0.64194968	0.53931899	3.56602258	-0.21496372	0.67775028	-0.22392807	0.25797573	-0.18471035	0.78880382	0.30316559	-0.24838634	0.59712709	-0.76948160	2.60291159	3.32616798	0.07003807	-0.11228400	0.17219368
2502	25.01000000	0.10131143	-0.14646144	0.10683563	0.00304903	0.00162306	0.06110092	0.09427604	0.37698685	3.07893811	-0.32089301	0.57888026	-0.26484879	0.26266678	-0.17551585	0.78396672	0.32813843	-0.24044212	0.64378716	-0.61616672	2.35967748	3.44247498	0.09471103	-0.17268428	0.15558634
2503	25.02000000	0.10159027	-0.09955883	0.10570413	-0.06333169	0.02465961	0.08724677	-0.09642218	0.42475542	2.60573109	-0.41499963	0.49427612	-0.31810913	0.29996408	-0.14882543	0.81630230	0.35621328	-0.23099685	0.68667400	-0.36566284	2.18801769	3.40009102	0.13972506	-0.17296019	0.14794908
2504	25.03000000	0.08756801	-0.05851835	0.11148671	-0.09453107	0.05681763	0.11352136	0.05986596	0.50927355	2.28257816	-0.50069674	0.43212920	-0.37081429	0.33173204	-0.11799040	0.87064375	0.35539003	-0.22710781	0.70319818	-0.04862782	2.02361508	3.19654973	0.12175793	-0.16219016	0.16124986
2505	25.04000000	0.06460472	-0.02330010	0.10417074	-0.09044613	0.09446530	0.14284132	0.47667881	0.52702498	2.08324043	-0.53304256	0.39151365	-0.40998814	0.37381305	-0.09039492	0.89418240	0.32800485	-0.21711037	0.69879163	0.33057767	1.78340909	2.82680292	0.13016495	-0.24912369	0.14157029
2506	25.05000000	0.04250446	0.01376985	0.09951117	-0.06505661	0.12669819	0.16929212	1.07551869	0.49226881	1.82784450	-0.50674522	0.38084083	-0.45280916	0.46187067	-0.06579843	0.91507691	0.33171951	-0.19357844	0.69905831	0.68495803	1.44336920	2.35493090	0.17951148	-0.27352451	0.11499140
2507	25.06000000	0.01914178	0.04476507	0.09439246	-0.02220171	0.14866566	0.18747598	1.70241520	0.42379708	1.43919065	-0.49401173	0.38073004	-0.52054275	0.54440134	-0.03120846	0.98603047	0.37621921	-0.15730249	0.67275328	0.87440759	1.09275385	1.91352094	0.20569395	-0.31292136	0.07725477
2508	25.07000000	0.00155942	0.07037475	0.08566560	0.02040040	0.16225541	0.21114913	2.20504224	0.37381429	0.92170059	-0.53055779	0.35450382	-0.61981463	0.60965220	0.00253265	1.08644440	0.45712755	-0.11066778	0.63145288	0.93594803	0.75911846	1.57836270	0.21648084	-0.33234201	0.01683925
2509	25.08000000	-0.00221042	0.09349375	0.07117021	0.05240981	0.15135753	0.22550520	2.44669459	0.32521990	0.38557480	-0.61079884	0.32029620	-0.73553193	0.61841441	-0.02154731	1.14708273	0.50475891	-0.05435249	0.57335050	0.40728699	0.41583306	1.36746824	0.27037794	-0.42713181	-0.03609116
2510	25.09000000	0.00206684	0.11369399	0.05188950	0.09583295	0.12409097	0.22973286	1.79830093	0.20091479	0.05520777	-0.69296592	0.28928182	-0.79458585	0.60824813	-0.08919572	1.15988976	0.47688236	-0.01963218	0.51284163	-0.19250319	0.06788793	1.08258981	0.33560647	-0.58546209	-0.05287926
2511	25.10000000	0.01184472	0.12336602	0.03265168	0.16286348	0.08284687	0.23644521	0.70930229	0.02964805	-0.19891030	-0.63702267	0.17658223	-0.73590346	0.59736890	-0.11549621	1.19339809	0.48592312	0.02079742	0.47888666	0.28466129	-0.28065202	0.58247618	0.32713680	-0.61859935	-0.03721225
2512	25.11000000	0.02584792	0.13063231	0.00832505	0.24092850	0.02116533	0.23632969	0.32898983	-0.22654022	-0.55657264	-0.36121032	-0.00006760	-0.61164047	0.59161355	-0.14530827	1.30784505	0.57980015	0.09002899	0.44052979	0.49021354	-0.50285949	0.24570176	0.35379323	-0.71564399	-0.02836492
2513	25.12000000	0.04610089	0.14667736	-0.01544218	0.31293390	-0.03373117	0.22508783	-0.08632475	-0.50043806	-0.89364881	0.02932386	-0.16280409	-0.48179682	0.63869466	-0.15949541	1.39994522	0.66432761	0.13294874	0.40099230	0.48122740	-0.77244726	-0.27364439	0.37308780	-0.77180921	-0.01965947
2514	25.13000000	0.07246058	0.16857641	-0.04137560	0.38907827	-0.04757361	0.21834437	-0.44255337	-0.73232219	-1.29530149	0.44463315	-0.29084847	-0.35398221	0.65014663	-0.13309657	1.44014162	0.69970412	0.15494243	0.37681082	-1.39202468	-1.26056872	-0.67562827	0.35104221	-0.91493539	-0.02102401
2515	25.14000000	0.09988542	0.16642453	-0.06557148	0.43971618	-0.01583900	0.23188814	-0.48734035	-0.98746625	-1.62754204	0.94624929	-0.41367878	-0.28540256	0.64586363	-0.12028172	1.48496718	0.71015583	0.18705540	0.37969130	-1.63283126	-1.36351258	-1.01380104	0.33145602	-1.00509484	-0.02406543
2516	25.15000000	0.12590413	0.16639357	-0.08190951	0.42892960	0.05069181	0.27119204	-1.16193039	-0.95531101	-1.24840034	1.49559040	-0.52802923	-0.33525336	0.58717981	-0.08954663	1.54930208	0.70795644	0.20418364	0.39072975	0.87695965	-1.35945516	-1.77213159	0.29476434	-1.13873700	-0.05138684
2517	25.16000000	0.15810340	0.18349880	-0.10233584	0.32160581	0.10317669	0.33241642	-1.75168681	-0.54935621	-0.04051485	1.84852960	-0.59945327	-0.50767599	0.51501573	-0.06769189	1.65471239	0.65887114	0.20517304	0.39992709	-0.31413118	-2.21584918	-1.59838785	0.37206715	-1.29674489	-0.05294268
2518	25.17000000	0.19372549	0.21103552	-0.08187679	0.08252775	0.07494432	0.40236419	-0.69828172	-0.31712260	0.73197594	1.82406611	-0.59913758	-0.73633610	0.47889939	-0.04943809	1.75006952	0.54537640	0.20536275	0.40489043	-0.69689307	-2.62699375	-0.95425859	0.39107734	-1.51844603	0.04508753
2519	25.18000000	0.21833572	0.27410876	-0.05088617	-0.12638203	0.04354662	0.47301737	0.32093151	-0.44217438	0.19795809	1.50816139	-0.54705175	-0.87226350	0.50701488	-0.05215399	1.79338987	0.38563278	0.20890506	0.38954356	0.31263587	-1.90792422	-0.34988621	0.30474299	-1.78879339	0.19559601
